<svg width="38" height="38" viewBox="0 0 38 38" fill="none" xmlns="http://www.w3.org/2000/svg">
<path fill-rule="evenodd" clip-rule="evenodd" d="M3.56244 19C3.56244 18.3442 4.0941 17.8125 4.74994 17.8125H33.2499C33.9058 17.8125 34.4374 18.3442 34.4374 19C34.4374 19.6558 33.9058 20.1875 33.2499 20.1875H4.74994C4.0941 20.1875 3.56244 19.6558 3.56244 19Z" fill="#1C1B1E"/>
<path fill-rule="evenodd" clip-rule="evenodd" d="M22.9103 8.66031C23.3741 8.19656 24.1259 8.19656 24.5897 8.66031L34.0897 18.1603C34.5534 18.6241 34.5534 19.3759 34.0897 19.8397L24.5897 29.3397C24.1259 29.8034 23.3741 29.8034 22.9103 29.3397C22.4466 28.8759 22.4466 28.1241 22.9103 27.6603L31.5706 19L22.9103 10.3397C22.4466 9.87594 22.4466 9.12406 22.9103 8.66031Z" fill="#1C1B1E"/>
</svg>
