<svg width="207" height="61" viewBox="0 0 207 61" fill="none" xmlns="http://www.w3.org/2000/svg">
<path fill-rule="evenodd" clip-rule="evenodd" d="M150.2 6.81417C160.242 6.99403 168.223 8.76894 176.205 10.762C202.382 17.3068 211.137 27.4616 193.2 37.4404C165.306 52.9152 100.335 63.043 49.9549 58.369C38.7974 57.3389 23.692 56.4309 12.6204 51.4004C2.32119 46.7231 2.75032 41.1626 7.47077 36.0147C12.2771 30.7366 21.5463 25.8788 28.9274 22.7562C61.1981 9.13223 125.825 -3.25007 184.273 3.27778C185.475 3.40356 186.677 3.18726 187.02 2.79469C187.363 2.40212 186.762 1.98117 185.646 1.8554C125.482 -4.86276 58.7947 7.78543 25.5798 21.8064C16.3964 25.7001 4.38136 32.1999 0.948299 38.9249C-1.36901 43.5213 0.261353 48.2199 9.1873 52.3072C20.9455 57.6657 36.9952 58.7152 48.8393 59.8123C100.85 64.6399 168.052 54.2159 196.804 38.2336C216.115 27.5082 206.846 16.5832 178.695 9.5484C170.112 7.386 161.357 5.51727 150.457 5.32248C149.256 5.30126 148.226 5.61825 148.226 6.02994C148.14 6.44162 149.084 6.79296 150.2 6.81417Z" fill="#F05B32"/>
</svg>
